<?xml version="1.0" encoding="utf-8"?>
<!-- Generator: Adobe Illustrator 26.2.1, SVG Export Plug-In . SVG Version: 6.00 Build 0)  -->
<svg version="1.1" id="Layer_3" xmlns="http://www.w3.org/2000/svg" xmlns:xlink="http://www.w3.org/1999/xlink" x="0px" y="0px"
	 viewBox="0 0 480 477.6" style="enable-background:new 0 0 480 477.6;" xml:space="preserve">
<style type="text/css">
	.st0{clip-path:url(#SVGID_00000082340335265581781110000002520052312919554749_);}
	.st1{fill:#FEFEFE;}
	.st2{fill:#939393;}
	.st3{fill:#A0A0A0;}
	.st4{fill:#949494;}
	.st5{fill:#515151;}
	.st6{fill:#A6A6A6;}
	.st7{fill:#4F4F4F;}
	.st8{fill:#A3A3A3;}
	.st9{fill:#BBBBBB;}
	.st10{fill:#9B9B9B;}
	.st11{fill:#525252;}
	.st12{fill:#A1A1A1;}
	.st13{fill:#575757;}
	.st14{fill:#A7A7A7;}
	.st15{fill:#B0B0B0;}
	.st16{fill:#B7B7B7;}
	.st17{fill:#545454;}
	.st18{fill:#CECECE;}
	.st19{fill:#ADADAD;}
	.st20{fill:#5C5C5C;}
	.st21{fill:#6B6B6B;}
	.st22{fill:#A8A8A8;}
	.st23{fill:#ABABAB;}
	.st24{fill:#B6B6B6;}
	.st25{fill:#AFAFAF;}
	.st26{fill:#9A9A9A;}
	.st27{fill:#A4A4A4;}
	.st28{fill:#C2C2C2;}
	.st29{fill:#AAAAAA;}
	.st30{fill:#ACACAC;}
	.st31{fill:#9D9D9D;}
	.st32{fill:#C7C7C7;}
	.st33{fill:#A5A5A5;}
	.st34{fill:#595959;}
	.st35{fill:#999999;}
	.st36{fill:#DFDFDF;}
	.st37{fill:#666666;}
	.st38{fill:#616161;}
	.st39{fill:#818181;}
	.st40{fill:#C6C6C6;}
	.st41{fill:#7F7F7F;}
	.st42{fill:#A9A9A9;}
	.st43{fill:#9C9C9C;}
	.st44{fill:#A2A2A2;}
	.st45{fill:#B5B5B5;}
	.st46{fill:#DADADA;}
	.st47{fill:#B9B9B9;}
	.st48{fill:#BABABA;}
	.st49{fill:#9E9E9E;}
	.st50{fill:#B2B2B2;}
	.st51{fill:none;stroke:#595959;stroke-width:3;stroke-miterlimit:10;}
</style>
<g>
	<defs>
		<circle id="SVGID_1_" cx="240" cy="238.8" r="94.91"/>
	</defs>
	<clipPath id="SVGID_00000148619894656010599920000010753272361328170680_">
		<use xlink:href="#SVGID_1_"  style="overflow:visible;"/>
	</clipPath>
	<g style="clip-path:url(#SVGID_00000148619894656010599920000010753272361328170680_);">
		<g>
			<path class="st1" d="M367.89,240.97c0,44.56-0.1,89.13,0.14,133.69c0.03,5.23-1.18,6.41-6.4,6.4c-80-0.19-160.01-0.19-240.01,0
				c-5.22,0.01-6.41-1.18-6.39-6.4c0.19-89.13,0.19-178.26,0-267.39c-0.01-5.22,1.18-6.41,6.39-6.4c80,0.19,160.01,0.19,240.01,0
				c5.22-0.01,6.43,1.18,6.4,6.4C367.78,151.83,367.89,196.4,367.89,240.97z"/>
			<path class="st2" d="M288.58,144.89c13.45,4.59,21.58,15.8,31.23,25.13c0.47,7.34,1.78,14.64,1.21,22.03
				c-0.79,3.92,2.36,7.34,1.43,11.26c-6.32,6.26-12.01,13.42-21.38,15.5c-7.3,0.57-13.11-4.04-19.6-6.09
				c-7.48-2.37-6.44-8.61,2.03-15.11c2.04-2.06,3.59-4.47,4.87-7.07c9.28-6.99,9.38-7.83,2.78-17.47c-1.54-2.24-1.98-5.15-4.22-7
				c-3.36-5.25-6.49-10.59-4.82-17.26C283.34,145.99,286.19,145.83,288.58,144.89z"/>
			<path class="st3" d="M214.88,144.66c10-5.44,18.85-14.53,31.97-10.09c4.45,6.14,14.67,4.98,17.18,13.58
				c1.91,8.02,1.41,15.96-0.81,23.85c-1.82,2.13-4.26,2.87-6.9,3.13c-1.38,0.25-2.82,0.32-4.05-0.37
				c-6.67-3.71-10.82-3.38-10.37,5.84c0.1,2.02-1.89,3.6-3.34,5.13c-0.8,0.66-1.68,1.13-2.67,1.43c-5.68,0.86-7.61-3.54-10.12-7.18
				c-2.14-3.1-3.59-6.63-6.06-9.5c-3.85-6.45,5.69-10.01,3.43-16.1C219.82,151.61,215.23,149.91,214.88,144.66z"/>
			<path class="st4" d="M147.3,249.34c-0.98-2.07-1.96-4.13-2.93-6.2c-4.49-7.45,0.09-14.69,0.52-22.04
				c2.41-9.47,4.53-19.03,12.62-25.77c3.83-3.19,7.47-4.86,11.72-0.93c2.86,3.67,0.14,7.17-0.33,10.74
				c2.96,12.87-5.04,23.48-7.46,35.24c-0.61,2.96-2.35,5.87-2.95,9.04c-0.53,1.68-1.55,2.94-3.07,3.82
				C151.53,254.42,148.53,253.73,147.3,249.34z"/>
			<path class="st5" d="M291.1,320.31c-13.4,11.92-30.09,13.28-46.67,13.44c-14.76,0.15-29.99,1.07-43.41-7.45
				c-1.31-3.93,0.5-6.39,3.83-8.14c1.07-0.33,2.17-0.38,3.28-0.2c8.96,3.22,18.68,3.74,27.31,8.47c4.94,2.7,10.23-0.69,15.01-2.36
				c6.5-2.27,12.95-4.87,19.06-8.14c3.44-2.71,7.23-0.18,10.81-0.74c1.06,0,2.1,0.12,3.14,0.35
				C286.2,316.82,289.96,316.45,291.1,320.31z"/>
			<path class="st6" d="M167.56,194.99c-14.02,3.77-16.29,15.73-19.05,27.35c-3.81,1.21-4.46-2.33-6.24-4.16
				c6.48-16.44,9.01-35.01,24.9-46.39c3.29-0.27,5.51,1.57,7.51,3.83c2.9,4.89-0.19,8.92-1.87,13.15
				C171.56,191.27,170.7,194.09,167.56,194.99z"/>
			<path class="st5" d="M338.98,224.08c0.96,0.33,2.49,0.4,2.78,1.04c4.87,10.54-2.4,42.14-11.27,49.56
				c-3.83,1.03-6.03-1.25-8.02-3.95c-0.97-7.2,4.49-12.82,4.83-19.71c1.33-3.55,2.58-7.12,3.31-10.86
				C333.97,235.1,329.84,226.13,338.98,224.08z"/>
			<path class="st7" d="M177.7,313.06c-9.45-7-17.75-15-22.56-26.02c5.24-2.08,8.73-5.01,5.39-11.23c0.36-1.54,0.85-3.04,1.33-4.55
				c0.73-2.76,1.44-5.52,4.8-6.25c2.57-0.09,4.14,1.78,6.02,3.06c3.82,3.09,3.53,8.33,6.28,11.98c0.65,6.25-1.8,12.52,0.12,18.78
				c0.25,3.46,2.95,6.48,1.77,10.19C180.39,310.82,179.44,312.24,177.7,313.06z"/>
			<path class="st8" d="M165.13,276.71c1.48,5.12,3.43,10.15,2.71,15.97c-4.94-0.72-7.7-5.83-12.7-5.64
				c-3.44-8.88-10.98-16.51-8.38-27.25c3.09-3.36,6.84-4.23,11.17-3.02c4.2,3.03,4.05,7.93,5.2,12.26
				C163.04,271.77,161.97,274.79,165.13,276.71z"/>
			<path class="st9" d="M188.02,150.85c7.1-7.74,15.27-11.03,25.41-6.11c1.14,1.21,1.74,2.62,1.59,4.31
				c-4.8,8.79-13.78,12.56-21.45,17.91c-3.66,1.03-6.36-0.01-7.86-3.62C183.48,158.62,190.09,155.54,188.02,150.85z"/>
			<path class="st10" d="M261.45,149.06c-1.48-0.84-3.07-2.56-4.42-2.39c-9.89,1.26-9.82-5.54-10.19-12.1
				c8.09,0.28,16.36-0.1,23.01,5.86c6.68,6.56,0.61,8.25-4,10.5C264.09,151.01,262.55,150.56,261.45,149.06z"/>
			<path class="st11" d="M338.98,224.08c-3.23,5.75-3.92,12.09-4.34,18.5c-5.32,3.48-6.45-0.65-7.1-4.31
				c-0.82-4.65-0.3-9.44-0.32-14.17c-0.42-6.27,3.4-11.48,4.41-17.39c0.88-2.44,2.22-4.24,5.19-3.8
				C341.29,209.59,337.78,217.08,338.98,224.08z"/>
			<path class="st12" d="M265.61,149.02c1.58-2.78,5.46-4.43,4.25-8.6c6.51,0.37,13.22-0.15,18.72,4.47
				c-1.39,1.39-2.78,2.77-4.17,4.16c-3.42,4.78-4.02,12.24-12.01,12.7c-1.58-0.15-2.91-0.81-4.01-1.93
				C266.28,156.53,265.5,152.89,265.61,149.02z"/>
			<path class="st13" d="M177.7,313.06c0.13-1.84,0.27-3.68,0.4-5.52c3.58-1.3,7.12-0.93,10.66,0.2
				c6.25,3.39,15.45,3.11,16.35,13.15c-1.36,1.8-2.72,3.61-4.09,5.41C192.96,322.4,184.51,319.17,177.7,313.06z"/>
			<path class="st12" d="M323.98,270.23c2.17,1.49,4.34,2.97,6.51,4.46c-4.85,8.45-9.7,16.91-14.55,25.36
				c-3.11-0.43-6.28-0.72-8.41-3.51c-0.54-0.94-0.88-1.95-1.02-3.02c-0.11-1.07-0.18-2.15-0.23-3.23c0.36-2.81,2.41-4.65,3.85-6.85
				c3.77-3.34,10.34-3.71,10.95-10.4c0.36-0.88,0.9-1.64,1.61-2.27C323.11,270.59,323.55,270.41,323.98,270.23z"/>
			<path class="st8" d="M188.02,150.85c7.68,3.35,4.67,7.04,0.34,10.76c-2.04,3.06-2.01,7.54-6.24,9.1
				c-2.23,0.81-4.33,0.6-6.33-0.69c-4.27-3.9-1.04-7.91-0.17-11.9C179.76,155.7,183.89,153.28,188.02,150.85z"/>
			<path class="st14" d="M291.1,320.31c-3.09-0.26-6.33,0.62-9.18-1.3c-1.38-10.49,6.21-12.96,13.79-15.46
				c1.1-0.34,2.22-0.37,3.35-0.15c3.04,1.13,4.45,3.31,4.21,6.55C300.32,314.69,295.5,317.26,291.1,320.31z"/>
			<path class="st8" d="M336.82,202.91c-0.9,1.61-1.79,3.22-2.69,4.83c-2.71,2.55-4.83,6.15-9.48,5.31c-1.05-0.36-1.87-1-2.51-1.9
				c1.23-6.95-3.34-14.23,1.19-20.99c3.47-1.83,5.38,0.44,7.27,2.78C332.68,196.26,334.75,199.59,336.82,202.91z"/>
			<path class="st15" d="M303.27,309.94c-1.49-1.53-2.97-3.06-4.46-4.59c-1.48-2.68-0.08-4.72,1.47-6.74
				c0.66-0.73,1.42-1.34,2.28-1.82c2.27-0.85,4.51-1.86,7.04-1.45c2.84,0.58,4.91,2.2,6.33,4.7
				C312.17,303.93,309.35,309.02,303.27,309.94z"/>
			<path class="st16" d="M213.43,149.09c0-1.45,0-2.9,0-4.35c0.48-0.09,0.97-0.12,1.45-0.08c4.4,2.15,8.8,4.31,13.2,6.47
				c0.87,4.88-0.18,9.15-5.44,10.34c-4.01,0.91-8.36,0.44-10.96-3.66C209.58,154.47,209.57,151.33,213.43,149.09z"/>
			<path class="st17" d="M330.61,192.93c-2.2-0.97-4.39-1.95-6.59-2.92c-2.3,0.05-2.5,5.13-5.92,2.47
				c0.29-7.51-2.56-15.26,1.71-22.46C324.6,177.09,329,184.35,330.61,192.93z"/>
			<path class="st18" d="M142.27,218.18c3.95-1.42,4.6,2.12,6.24,4.16c-2.88,6.64-4.65,13.5-4.14,20.81
				C137.06,235.38,142.22,226.56,142.27,218.18z"/>
			<path class="st19" d="M156.44,257.62c-2.01,6.19-6.08,3.1-9.68,2.17c-2.32-3.61-2.4-7.11,0.55-10.44
				c2.59,0.72,5.18,1.44,7.76,2.16c3.25-0.58,3.32,1.64,3.39,3.86C158.18,256.47,157.51,257.22,156.44,257.62z"/>
			<path class="st20" d="M175.63,158.13c1.85,3.11,0.53,6.44,0.67,9.67c1.39,4.37,0.39,7.37-4.63,8.06c-1.5-1.36-3-2.71-4.49-4.07
				C169.3,166.81,169.05,160.35,175.63,158.13z"/>
			<path class="st3" d="M286.48,199.13c-2.04,2.15-6.04,4.61-5.75,6.38c0.76,4.68,5.77,1.29,8.45,2.79c4.1,2.3,7.96,5.04,11.93,7.59
				c2.37,1.9,6.04,0.27,8.11,2.98c3.78,6.74,2.57,13.94-3.08,17.62c-5.87,3.83-11.98,11.52-20.98,5.64
				c-1.43-0.93-3.07-1.63-4.88-1.46c-8.63,0.82-11.27-2.33-8.58-11.02c2.43-7.84-3.3-13.06-13.49-15.76
				c-10.76-2.85-21.33-6.62-30.62-13.14c-1.81-1.27-2.75-3.04-3.52-5c-0.9-4.51,1.21-7.3,5.44-7.89c2.82-0.4,5.13-1.09,6.91-3.3
				l-0.01,0c11.96-7.37,16.93-6.37,28.15,5.65c0.68,0.64,1.25,1.39,1.71,2.19c1.22,3.62,3.72,2.46,6.15,1.6
				c1.81-0.63,3.72-0.82,5.53-1.44C283.89,190.72,288.42,190.72,286.48,199.13z"/>
			<path class="st10" d="M292.75,163.67c2.1,2.15-1.9,14.83,7.61,4.37c1.3-1.43,3.24,0.03,4.63,1.03c1.57,1.13,2.54,3.19,1.35,4.47
				c-5.68,6.11-5.34,17.1-15.68,19.36c-4.7,3.49-5.21-1.94-7.52-3.54c-2.78-3.88-7.52-6.17-8.98-11.13
				c-0.07-1.56,0.44-2.91,1.44-4.08c3.64-2.83,7.93-4.6,9.54-9.94C286.35,160.27,289.88,159.57,292.75,163.67z"/>
			<path class="st10" d="M307.37,220.08c-2.87-0.23-5.15-1.35-6.26-4.2c5.98-4.56,10.13-11.86,18.72-12.51
				c4.42,1.42,2.65,5.45,3.51,8.36c2.84,4.82,5.45,9.67,2.54,15.43c-8.16,6.71-9.49,6.53-14.89-2.03
				C309.87,223.39,308.83,221.59,307.37,220.08z"/>
			<path class="st14" d="M292.75,163.67c-5.13,3.87-5.92,12.79-14.57,12.56c-1.12-0.92-2.32-1.76-3.12-3.02
				c-1.34-4.5-5.91-8.25-3.13-13.69c4.43-3.17,5-10.94,12.48-10.47C285.79,154.72,290.08,158.74,292.75,163.67z"/>
			<path class="st21" d="M322,211.7c-0.73-2.77-1.45-5.54-2.18-8.32c-0.58-3.63-1.16-7.26-1.74-10.89c2.18-2,0.51-6.64,3.94-7.15
				c2.2-0.32,1.86,2.82,1.98,4.68c0.13,7.21,0.25,14.42,0.38,21.64C323.61,212.38,322.81,212.43,322,211.7z"/>
			<path class="st22" d="M286.49,186.65c6.41-1.28-0.87,6.62,4.18,6.26c1.2,3.83-0.68,5.58-4.19,6.22c-1.8-4.63-4.7-4.78-8.31-2.05
				c-3.22-2.04-4.96-4.76-2.76-8.39C278.23,184.04,282.81,187.46,286.49,186.65z"/>
			<path class="st14" d="M236.41,184.56c2.44,6.52,4.51,12.61-6.61,7.85c-1.86-0.8-3.1,0.91-3.83,2.6c0.04,0.49,0.07,0.98,0.11,1.47
				c0.4,6.18,2.41,11.07,8.98,13.28c4.41,1.49,6.82,4.56,4.38,9.53c-7.95,15.26-28.34,18.9-41.21,7.36
				c-3.61-3.24-4.84-6.73-0.96-10.65c3.29-1.97,7.66-3.34,1.44-7.57c-8.59-5.84-8.23-15.42-7.92-24.13
				c0.22-6.02,5.88-6.73,11.04-6.45c3.02,1.42,5.65,3.39,8.86-0.5c2.53-3.07,5.47-6.26,9.68-7.45c0.48,0,0.95,0.01,1.43,0.01
				C230.25,171.21,229.98,181.24,236.41,184.56z"/>
			<path class="st23" d="M263.51,192.91c-9.48-1.34-16.21-11.62-27.11-8.34c2.18-4.23,1.47-7.95-1.87-11.31
				c-1.89-1.9-2.85-3.77-0.05-6c4.53-3.61,17.59-0.72,20.7,4.77c2.4,1.84,5.63,1.86,7.94,1.39c6.97-1.43,9.18,3.21,11.76,7.81
				C276.36,190.26,269.27,190.93,263.51,192.91z"/>
			<path class="st23" d="M213.43,149.09c-1.15,4.8,0.99,6.72,5.66,7.41c4.78,0.71,7.82-0.51,8.99-5.38
				c2.24,1.23,7.08,0.82,2.92,5.72c-3.43,4.05-6.16,8.69-9.21,13.07c0,0-0.02,0.01-0.02,0.01c-6.98,9.39-14.57,5.35-22.17,1
				c-0.98-0.29-1.9-0.71-2.75-1.28c-1.92-1.68-4.13-3.15-4.35-6.05C198.75,157.71,205.13,152.01,213.43,149.09z"/>
			<path class="st24" d="M271.8,182.45c-5.88-2.93-12.03-5.43-16.62-10.43c2.08-0.71,4.16-1.43,6.23-2.14
				c2.18-2.25,4.91-3.08,7.96-3.04c4.11-0.25,5.81,3.53,8.74,5.24c0.02,1.39,0.04,2.77,0.06,4.16c-0.74,0.66-1.49,1.33-2.23,1.99
				C275.66,180.71,273.31,181.16,271.8,182.45z"/>
			<path class="st14" d="M269.79,169.84c-2.79,0.01-5.58,0.03-8.37,0.04c-1.48-6.94-3.88-13.89,0.04-20.82
				c1.39-0.01,2.77-0.02,4.16-0.04c2.65,2.16,4.64,4.67,4.18,8.38C269.41,161.55,272.71,165.7,269.79,169.84z"/>
			<path class="st25" d="M238.89,152.29c-4.02-1.55-5.17-3.2-4.74-5.49c0.6-3.16,2.09-5.91,5.65-6.4c1.57-0.22,2.83,2.18,2.19,2.51
				C238.3,144.79,238.08,148.35,238.89,152.29z"/>
			<path class="st26" d="M200.92,180.41c-1.92,1.27-6.43,2.02-5.33,3.85c4.03,6.73-0.81,16.26,7.21,21.49
				c3.37,2.19,6.5,4.74,10.1,7.39c-4.62,3.22-9.05,4.78-14.01,4.81c-4.62-1.03-6.45,2.03-8.03,5.48c-0.88,1.12-1.97,1.84-3.41,1.98
				c0.68,0.37,1.5,0.09,2.19,0.44c4.14,2.13,9.46,3.43,7.15,10.13c-3.59,4.72-4.6,11.48-11.02,13.94
				c-6.91,0.88-13.93-2.23-20.97,1.78c-3.3,1.89-6.9-2.01-9.8-4.49c3.49-13.93,6.98-27.85,10.47-41.78
				c6.58-4.21,6.09-10.19,4.13-16.54c0.69-4.34,1.39-8.68,2.08-13.03c1.54-2.69,3.09-5.37,4.63-8.06c1.95,0.02,3.9,0.05,5.85,0.07
				c5.57,1.09,11.13-1.22,16.69-0.03l0,0C202.54,171.54,206.04,175.26,200.92,180.41z"/>
			<path class="st27" d="M154.99,247.2c3.45,0.19,6.94,0.73,10.34,0.42c1.76-0.16,8.39-0.62,0.87-3.82
				c-1.78-0.76-0.49-2.48,0.75-3.13c1.92-1.01,4.57-1.5,5.78,0.26c2.88,4.16,7.26,4.96,11.49,6.3c4.1,4.7,2.88,7.6-2.84,9.63
				c-4.41,1.57-8.61,3.78-8.9,9.45c-0.5,1.46-1.5,2.46-2.84,3.16c-0.73-1.13-1.46-2.25-2.18-3.38c-5.72-1.44-6.62-7.56-10.46-10.82
				c-0.64-1.26-1.29-2.52-1.93-3.77C155.04,250.07,155.02,248.63,154.99,247.2z"/>
			<path class="st28" d="M169.58,188.89c2.79,1.38,5.78,0.78,9.74-0.35c-3.04,5.92-5.44,10.42-7.66,15.01
				c-1.46,3.01-3.11,4.62-6.2,1.88c0.7-3.48,1.4-6.96,2.1-10.44C168.23,192.95,168.91,190.92,169.58,188.89z"/>
			<path class="st29" d="M271.77,320.23c-6.9,2.35-13.8,4.69-20.69,7.04c-15.87,5.41-30.21,1.05-43.99-6.87
				c-0.4-2.02-1.4-3.28-3.13-4.75c-8.15-6.9-7.63-9.36,2.34-15.15c4.86-1.54,10.29,1.42,14.94-1.91
				c13.26-3.96,20.29,4.05,26.45,13.75c0.32,1.89,1.04,3.72,0.96,5.6c-0.05,0.25-0.13,0.57-0.19,0.9c-0.14,0.79,0.14,0.76,0.95,0.09
				c3.59-2.95,7.63-5.26,11.42-7.95c2.4-1.45,4.87-2.28,7.63-1.08C272.37,312.45,273.4,315.91,271.77,320.23z"/>
			<path class="st25" d="M207.18,303.63c-4.27,2.29-7.05,4.64-1.18,8.52c3.22,2.13,6.57,4.74,1.09,8.25
				c-0.68,0.08-1.34,0.24-1.98,0.49c-5.09-5.27-12-6.87-18.56-9.17c-1.77-3.95,1.15-5.79,3.51-7.9c1.86-2.19,4.24-3.25,7.09-3.31
				C200.64,301.09,205.87,296.08,207.18,303.63z"/>
			<path class="st30" d="M297.07,305.45c-5.08,4.48-11.96,6.94-15.15,13.55c-0.59-0.18-1.15-0.42-1.7-0.71
				c-5.94-3.07-7.63-8.01-6.23-14.29c4.56-5.2,10.71-5.96,17.07-6.09c2.86-0.25,5.72-0.48,7.14,2.86
				C298.57,302.51,298.03,304.03,297.07,305.45z"/>
			<path class="st31" d="M276.02,305.73c2.86,3.69,3.62,8.1,4.2,12.56c-2.82,0.65-5.63,1.29-8.45,1.94
				c-2.26-2.3-3.96-4.88-4.06-8.24c-1.31-1.99-1.07-3.94,0.14-5.87c1.49-1.72,3.34-2.49,5.61-2.12
				C274.47,304.34,275.33,304.92,276.02,305.73z"/>
			<path class="st4" d="M330.08,222c1.88,6.78-3.54,15.18,4.56,20.58c-1.57,3.08-3.13,6.17-4.7,9.25c-0.97,1.53-0.59,4.66-3.71,3.72
				c-2.8-0.84-2.92-3.53-3.13-5.96c-0.04-1.13-0.06-2.26-0.07-3.39c0.03-7.33-0.83-14.8,3.3-21.5
				C327,223.01,328.05,221.83,330.08,222z"/>
			<path class="st32" d="M326.1,248.89c0.45,2.06,0,5.29,3.83,2.94c0.95,7.09-3.59,12.39-5.96,18.4c0,0,0.09-0.14,0.09-0.14
				C318.16,264.75,319.18,254.15,326.1,248.89z"/>
			<path class="st15" d="M196.75,303.63c-1.39,1.4-2.79,2.8-4.18,4.2c-7.18,0.43-12.37-2.91-16.31-8.61
				c-3.8-5.78-2.63-12.23-2.5-18.55c1-4.22,0.31-9.36,5.73-11.25c5.93-2.08,8.88,1.56,11.59,6.03c1.36,2.24,4.15,2.27,6.56,2.72
				c1.07,0.32,1.96,0.9,2.74,1.69c1.4,1.66,0.86,4.12,1.89,5.66C207.91,293.96,203.74,299.17,196.75,303.63z"/>
			<path class="st33" d="M196.78,280.68c-0.4,2.69-0.37,5.97-3.78,6.5c-3.03,0.47-3.58-2.36-4.43-4.66
				c-4.47-12.02-5.63-12.14-14.79-1.85c-1.37-3.73-2.75-7.46-4.12-11.19c-0.01-1.13-0.02-2.26-0.03-3.4
				c2.46-4.09,5.04-7.88,10.41-8.62c3.18-0.44,5.37-2.2,6.57-5.62c1.84-5.22,6.44-6.12,11.05-4.7c5.03,1.56,4.55,6.21,3.88,10.16
				c-0.67,3.97-1.36,7.98,0.15,11.66C204.11,274.83,201.03,277.88,196.78,280.68z"/>
			<path class="st33" d="M176.27,299.21c7.39-0.84,11.49,4.57,16.31,8.61c-0.96,2.93-4.37,2.05-6.02,3.9
				c-3.42-0.17-6-2.05-8.45-4.19C177.49,304.76,176.88,301.98,176.27,299.21z"/>
			<path class="st34" d="M157,255.27c7.19,0.02,9.07,5.19,10.46,10.82c-0.81,2.26-1.62,4.51-2.43,6.77
				c-2.01,0.18-3.21-0.72-3.64-2.68c-2.84-3.72-4.78-7.79-4.95-12.57C156.63,256.83,156.81,256.05,157,255.27z"/>
			<path class="st35" d="M161.4,270.18c1.21,0.89,2.43,1.78,3.64,2.68c0.03,1.28,0.06,2.56,0.1,3.84c-2.39,1.62-4.09,7.31-7.72,2.78
				C154.05,275.3,157.12,272.06,161.4,270.18z"/>
			<path class="st3" d="M198.84,167.85c-5.55,6.33-11.12,6.81-16.69,0.03c2.07-2.09,4.14-4.18,6.22-6.27
				c0.67,2.14,2.11,2.68,4.14,1.98C195.17,164.18,197.32,165.55,198.84,167.85z"/>
			<path class="st36" d="M330.08,222c-0.61,0.78-1.22,1.55-1.84,2.33c-5.53-3.34-4.11-7.9-2.2-12.54c1.66-3.43,3-7.5,8.09-4.04
				C335.32,213.22,330.57,217,330.08,222z"/>
			<path class="st3" d="M269.79,169.84c-4.1-4.15-4.31-8.29,0-12.43c0.71,0.71,1.42,1.41,2.14,2.12c4.1,3.18,6.66,7.12,6.19,12.55
				C275.34,171.33,272.57,170.58,269.79,169.84z"/>
			<path class="st25" d="M296.9,301.41c-1.36,0.04-2.72,0.09-4.08,0.13c-8.4-6.03-8.95-7.53-2.54-15.31
				c4.33-5.26,4.65-12.31,8.88-17.42c4.41-7.52-2.47-9.24-6.39-12.47c-0.52-0.98-0.84-2.01-0.99-3.11
				c-1.96-6.79,2.59-10.36,7.39-12.58c7.09-3.29,14.08-2.07,19.88,3.64c0.89,0.66,1.57,1.51,2.01,2.53
				c0.26,1.02,0.21,2.05-0.15,3.04c-2.13,3.08-8.67,3.59-5.65,9.7c0.1,4.02,1.55,7.43,4.48,10.22c0.38,0.95,0.67,1.92,0.86,2.93
				c0.03,5.75-3.78,9.59-6.79,13.84c-1.47,1.53-2.93,3.06-4.4,4.58c-0.5,0.61-0.88,1.29-1.13,2.03c-0.37,0.69-0.81,1.33-1.32,1.94
				c-0.82,0.84-1.58,1.73-2.23,2.71c-0.5,0.6-1.03,1.17-1.59,1.71l0.09-0.09C301.25,300.47,299.68,302.88,296.9,301.41z"/>
			<path class="st37" d="M317.81,272.31c0.01-0.69,0.02-1.39,0.03-2.08c-2.23-4.17-2.07-8.94-3.36-13.35
				c-0.32-3.92,3.02-5.35,5.15-7.6c0.18-0.7,0.36-1.4,0.54-2.1c1.98-1.67,3.88-1.68,5.66,0.3c0.06,0.47,0.14,0.94,0.25,1.41
				c-3.5,6.8-2.23,14.05-2.04,21.21c-0.15,0.79-0.29,1.59-0.44,2.38C321.56,276.73,319.68,274.87,317.81,272.31z"/>
			<path class="st38" d="M317.81,272.31c1.94,0.06,3.88,0.11,5.82,0.17c-0.31,6.76-3.6,11.43-9.81,14.05
				C315.15,281.79,316.48,277.05,317.81,272.31z"/>
			<path class="st39" d="M303.15,299.5c0.02-0.7,0.03-1.4,0.05-2.1c0.8-2.03,2.49-3.12,4.28-4.11l-0.14,0.04
				c0.84-1.16,1.54-1.08,2.1,0.24c0.01,0.6,0.07,1.19,0.16,1.78C308.08,297.71,305.87,299,303.15,299.5z"/>
			<path class="st40" d="M309.44,293.56c-0.7-0.08-1.4-0.16-2.1-0.24c0.69-0.74,1.39-1.48,2.08-2.22
				C309.43,291.93,309.43,292.75,309.44,293.56z"/>
			<path class="st39" d="M296.9,301.41c2.12-0.66,4.23-1.33,6.35-1.99c-1.48,1.98-2.95,3.96-4.43,5.94
				c-0.58,0.05-1.16,0.09-1.74,0.1C297.01,304.11,296.95,302.76,296.9,301.41z"/>
			<path class="st41" d="M325.85,247.48c-1.89-0.1-3.78-0.2-5.67-0.3c0,0-0.61,0.14-0.61,0.14c-6.79-7.91,0.19-14.11,2.57-20.88
				c3.25-4.94-0.24-9.82-0.14-14.74c0.8-0.01,1.59-0.02,2.39-0.03c0.55,0.03,1.1,0.07,1.65,0.12c0.88,4.15-1.18,8.83,2.2,12.54
				C327.45,232.05,326.65,239.76,325.85,247.48z"/>
			<path class="st14" d="M322.14,226.44c0.02,7.07-0.85,14.03-2.57,20.88c-2.99-0.93-5.99-1.8-8.95-2.79
				c-8.63-2.89-14.27-0.61-15.8,8.98c-1.73,1.89-3.17,4.2-6.19,4.18c-3.53-0.08-5.35-2.66-7.41-5c-2.12-2.41-4.69-3.17-7.12-0.59
				c-6.32,6.72-14.41,4.4-22.03,4.61c-5.28-1.54-7.87,5.94-13.27,3.95c-5.26-1.49-10.61,0.8-15.88-0.4
				c-0.96-0.45-1.77-1.08-2.45-1.91c-0.83-1.41-1.08-2.92-0.83-4.52c3.5-4.49,5.96-9.07,6.41-15.25c0.6-8.21,9.25-12.31,12.24-19.6
				c1.83-4.76,0.33-7.94-4.5-9.56c-7.08-2.38-9.11-7.51-7.83-14.44c0,0,0,0,0,0c11.26,6.95,23.13,12.04,36.49,13.55
				c7.24,0.82,16.35,12.05,17.58,18.03c1.14,5.57-3.77,5.92-6.11,9.94c6.74-0.22,14.31,5.88,18.1,2.09
				c5.49-5.48,18.52-5.85,15.35-18.54C313.56,219.25,315.1,229.25,322.14,226.44z"/>
			<path class="st26" d="M271.8,182.45c0.77-2.01,2.13-3.44,4.15-4.22c3.51,2.81,7.03,5.62,10.55,8.43
				c-4.09,2.42-11.58,2.13-8.33,10.43c-1.41,1.05-2.81,1.06-4.22,0c-3.78-0.59-7.88-0.4-10.41-4.14c0,0-0.03-0.04-0.03-0.04
				C264.32,187.87,271.36,187.78,271.8,182.45z"/>
			<path class="st42" d="M263.54,192.94c3.97,0.13,7.51,1.34,10.41,4.14c-4.14,2.19-8.32,4.23-13.93,3.41
				C261.35,197.65,262.44,195.3,263.54,192.94z"/>
			<path class="st25" d="M240.58,220.07c-5.3,7.8-10.64,15.1-8.4,25.95c0.95,4.63-5.51,6.76-10.38,7.48c-2.92-0.41-4.18-2.28-3.75-5
				c1.03-6.56-3.56-6.13-7.66-6.39c-1.46-0.07-2.86-0.33-4.13-1.09c-5.71-7.87-14.5-12.8-19.94-20.94
				c3.94-2.17,6.84-10.48,12.57-2.13c1.48,8.31,13.56,14.08,19.72,9.24c2.2-1.73,4.02-4.02,7.09-2.84
				c6.39,2.45,8.56-1.87,10.71-6.37C238.75,216.76,239.45,218.84,240.58,220.07z"/>
			<path class="st3" d="M200.92,180.41c-0.69-4.19-1.39-8.37-2.08-12.56c2.98-0.46,6.85-2.42,8.73,0.3
				c4.4,6.38,9.41,2.06,14.21,1.78c-0.76,4.92-9.83,8.74-6.96,10.92c8.34,6.35-1.13,6.14-2.23,6.64
				C205.68,190.66,202.57,186.51,200.92,180.41z"/>
			<path class="st3" d="M240.58,220.07c-1.39-0.7-2.78-1.39-4.17-2.09c0.81-3.63-1.39-4.45-4.32-5.4
				c-7.99-2.58-10.39-9.84-6.11-17.57c2.95,4.97,4.77,10.62,10.98,13.18C242.35,210.4,240.91,215.61,240.58,220.07z"/>
			<path class="st43" d="M196.78,280.68c-1.62,0.32-3.23,0.65-4.85,0.97c0.01-3.07,0.42-6.67,3.61-7.27
				c2.56-0.48,4.87-1.15,2.2-2.82c-7.24-4.53-2.82-8.68-0.83-13.31c0.87-2.03,2.28-4.88-0.48-6.47c-2.26-1.3-5.41-0.5-6.47,1.6
				c-4.29,8.48-13.44,8.71-20.34,12.7c0-4.69,0-9.38,0-15.05c6.85,4.57,12.48,5.63,14.6-3.79c4.42-3.39,2.7-11.89,10.41-12.54
				c12.19-3.08,11.16,8.23,12.62,13.72c1.44,5.41,4.09,5.61,7.72,6.48c1.88,0.81,3.65,1.73,4.52,3.75c1.67,5.07,0,10.08-0.22,15.12
				c-1.54,2.2-3.75,3.38-6.27,4.06c-1.94,0.61-3.75,1.3-4.7,3.42c-3.63,8.12-6.58,3.89-9.49-0.57
				C198.13,280.67,197.46,280.68,196.78,280.68z"/>
			<path class="st44" d="M213.45,257.67c-6.85,0.17-1.01,7.39-6.11,9.51c-4.08-10.86-0.69-24.98-12.71-32.48
				c-2.63-5.41-7.24-6.79-12.82-6.53c-3.34,0.15-6.26-0.73-6.48-4.88c-0.11-2.08-0.1-4.29,2.01-5.46c2.62-1.45,3.36,0.57,4.48,2.46
				c1.32,2.24,3.27,5.47,4.5-0.2c8.89,4.12,15.76,10.48,20.87,18.81c1.91,4.19,5.07,7.21,8.86,9.69
				C220.67,253.17,218.29,255.77,213.45,257.67z"/>
			<path class="st45" d="M273.94,305.7c-1.38,0.72-2.76,1.43-4.14,2.15c-4.29,2.05-8.47,4.23-12.47,6.91
				c-3.92,2.63-8.7,4.91-12.57-0.68c-3.56-2.82-12.24-0.91-9.11-9.89c-4.6-0.9-9.2-1.8-13.8-2.69c-7.51-1.54-10.65-8.17-14.08-13.58
				c-2.44-3.85-0.18-8.67,4.74-10.71c2.83-1.17,5.81-1.95,7.84-4.47c4.56-2.92,8.84-0.52,13.17,0.73c4.61,5.19,9.42-2.79,14.08,0.2
				c6.8,2.88,6.23,10.25,9.38,15.36c0.42,0.68-0.65,2.62,0.64,1.97c9.11-4.58,12.93,4.05,18.9,7.29
				C276.87,301.19,275.5,303.48,273.94,305.7z"/>
			<path class="st33" d="M221.77,274.39c-2.18,1.61-4.25,3.4-6.55,4.79c-4.61,2.78-5.95,5.52-0.76,9.15
				c4.5,3.15,6.23,8.04,7.39,13.16c-3.3,11.6-9.38,4.14-14.66,2.14c-3.48-1.94-6.95,0.09-10.43-0.01c4.01-7.35,2.9-15.17,2.06-22.96
				c3.84,2.45,6.29,2.44,6.11-3.15c-0.18-5.62,2.72-5.35,6.45-3.11C214.84,277.9,218.29,270.62,221.77,274.39z"/>
			<path class="st8" d="M244.75,314.08c9.6,2.97,15.89-7.4,25.04-6.23c-0.69,1.38-1.39,2.76-2.08,4.14
				c-2.06,0.69-4.11,1.37-6.17,2.06c-4.56,2.37-8.64,6.4-14.52,4.3C246.27,316.93,245.51,315.51,244.75,314.08z"/>
			<path class="st46" d="M247.02,318.35c4.84-1.43,9.68-2.87,14.52-4.3c-6.31,7.41-14.87,8.79-24.3,8.07
				C240.51,320.86,243.76,319.61,247.02,318.35z"/>
			<path class="st8" d="M273.94,305.7c0.01-2.78,0.02-5.56,0.03-8.34c-9.58-4.99-14.14-12.82-14.08-23.69
				c0.02-3.34-1.64-6.6-3.47-9.56c-0.4-1.34-0.81-2.8,0.04-3.95c5.34-7.27,22.33-4.9,26.37,3.6c-0.09,0.87-0.25,1.76-0.75,2.53
				c-0.45,0.68-0.64,1-0.64,0.98c-0.01-0.39,0.19-0.61,0.64-0.76c3.63-2.84,2.14-8.62,6.49-10.92c2.08-0.69,4.16-1.39,6.25-2.08
				c0.02,0.7,0.03,1.4,0.05,2.1c2.81,1.79,7.81,1.34,6.79,7.01c-0.79,4.38,3.96,4.98,5.64,7.7c-6.26,5.67-6.03,15.67-13.73,20.44
				c-5.01,3.11-2.4,7.05-0.75,10.78c-5.89,0.22-11.58,1.24-16.79,4.2C275.33,305.73,274.63,305.72,273.94,305.7z"/>
			<path class="st24" d="M307.3,270.31c-9.13-0.68-8.3-9.8-12.43-14.71C307.97,252.94,304.39,264.37,307.3,270.31z"/>
			<path class="st47" d="M317.86,257.63c2.88,4.2,2.39,8.4-0.01,12.59c-6.52-0.83-6.24-5.77-6.31-10.49
				C313.13,257.52,314.99,256.05,317.86,257.63z"/>
			<path class="st14" d="M317.86,257.63c-2.11,0.7-4.22,1.4-6.32,2.11c-3.81-8.55,0.72-10.62,8.11-10.45
				C319.05,252.07,318.45,254.85,317.86,257.63z"/>
			<path class="st48" d="M307.48,293.29c-1.43,1.37-2.85,2.74-4.28,4.11C302.51,293.83,304.78,293.33,307.48,293.29z"/>
			<path class="st49" d="M280.24,266.01c-4.87-6.38-15.67-7.44-20.87-2.05c-0.86,2.36-2.48,3.35-4.98,2.8
				c-4.34-3.27-8.21-6.6-1.28-11.16c2.49-2.97,5.8-3.12,9.36-3.01c2.31,0.07,5.54,0.1,5.62-3.09c0.17-7.35,5.89-6.6,10.24-7.2
				c6.25-0.85,6.6,4.54,8.04,8.65c0.56,1.61,1.46,3.1,2.2,4.65c5.61,9.82,5.61,9.82-6.24,12.52
				C281.17,267.89,280.46,267.19,280.24,266.01z"/>
			<path class="st45" d="M253.12,255.6c-1.61,3.94,1.58,6.91,2.07,10.43c-0.16,4.71-3.04,6.61-7.27,7.12
				c-4.16-1.04-7.72,2.43-11.88,1.66c-3.08-2.61-8.64-1-10.29-5.76c-1.01-2.91-1.3-6.14,0.69-8.87c3.21-4.4,7.64-3.53,12.05-2.5
				c8.63-1.6,10-7.88,9.05-16.47C253.24,245.61,253.03,250.66,253.12,255.6z"/>
			<path class="st25" d="M238.49,257.67c-1.66,4.46-9.84-1.46-9.71,6.27c0.06,3.57,1.84,4.66,4.66,5.64c1.16,0.4,1.98,1.8,2.95,2.75
				c1.2,3.98-2.48,3.05-4.15,4.14c-3.49-0.69-6.99-1.38-10.48-2.08c-3.46,0.63-6.93,2.49-10.4,0.02c2.06-0.72,4.12-1.44,6.17-2.16
				c1.32-5.21,3.82-9.9,6.34-14.58C228.75,255.71,233.62,251.49,238.49,257.67z"/>
			<path class="st6" d="M213.45,257.67c0.68-2.09,4.11-4.19-0.02-6.26c-0.16-4.26-5.84-7.58-2.11-12.49
				c16.3-4.35,10.04,7.52,10.47,14.58c0,1.39,0,2.79,0,4.18c0.03,3.54-1.76,3.44-4.17,2.08
				C216.23,259.07,214.84,258.37,213.45,257.67z"/>
			<path class="st27" d="M217.62,259.76c1.39-0.7,2.78-1.39,4.17-2.09c0.7,0,1.39,0,2.09,0c2.86,7.02,0.93,11.96-6.34,14.58
				C213.48,268.07,215.91,263.92,217.62,259.76z"/>
			<path class="st43" d="M211.33,238.92c0.9,4.13,4.72,7.77,2.11,12.49c-4.3-3.06-8.81-6.03-6.26-12.52
				C208.56,238.9,209.94,238.91,211.33,238.92z"/>
			<path class="st22" d="M246.84,270.24c2.79-1.4,5.57-2.81,8.36-4.21c1.39-0.69,2.79-1.38,4.18-2.07c3.16,2.27,6.39,5.33,6.35,8.95
				c-0.08,9.44,1.2,17.37,11.79,20.59c1.32,0.4,3.34,3.08,1.08,4.86c-0.79,0.62-3.04-0.61-4.62-0.99
				c-7.58-2.42-14.95-5.67-22.54,0.85c-1.58,1.36-8.11,3.12-8.43-1.6c-0.34-4.99,6.01-4.23,11.26-6.4
				c-10.19-1.56-3.83-9.66-7.42-13.81C245.17,274.36,245.03,272.3,246.84,270.24z"/>
			<path class="st22" d="M246.84,270.24c0,2.06,0,4.11,0,6.17c-9.2-0.22-7.26,9.33-11.42,13.39c-8.93-2.79,1.28-9.68-3.17-13.34
				c1.38-1.38,2.77-2.76,4.15-4.14c5.42-1.49,4.35-5.7,2.86-10.56C244.78,263.33,244.41,267.98,246.84,270.24z"/>
			<path class="st50" d="M280.24,266.01c0.7,0.7,1.4,1.4,2.11,2.1c-0.65,2.31-1.65,4.59-1.84,6.93c-0.17,2.05,0.83,4.35-2.21,4.89
				c-1.84,0.33-3.46-0.44-4.44-2.04c-1.28-2.1-0.49-4.03,0.92-5.72C276.54,270.07,278.41,268.06,280.24,266.01z"/>
		</g>
	</g>
</g>
<circle class="st51" cx="240" cy="238.8" r="78.91"/>
<circle class="st51" cx="240" cy="238.8" r="47.43"/>
<circle class="st51" cx="240" cy="238.8" r="15.45"/>
</svg>
