<?xml version="1.0" encoding="utf-8"?>
<!-- Generator: Adobe Illustrator 26.2.1, SVG Export Plug-In . SVG Version: 6.00 Build 0)  -->
<svg version="1.1" id="minotaurs_ring" xmlns="http://www.w3.org/2000/svg" xmlns:xlink="http://www.w3.org/1999/xlink" x="0px"
	 y="0px" viewBox="0 0 480 477.6" style="enable-background:new 0 0 480 477.6;" xml:space="preserve">
<style type="text/css">
	.st0{fill:url(#SVGID_1_);}
	.st1{fill:#E2D0A8;}
</style>
<radialGradient id="SVGID_1_" cx="240" cy="238.8" r="69.7136" gradientTransform="matrix(1 0 0 1.0023 0 -0.5553)" gradientUnits="userSpaceOnUse">
	<stop  offset="0.7319" style="stop-color:#9B7932"/>
	<stop  offset="0.7592" style="stop-color:#9E7C34"/>
	<stop  offset="0.7833" style="stop-color:#A98638"/>
	<stop  offset="0.806" style="stop-color:#BB9740"/>
	<stop  offset="0.8163" style="stop-color:#C6A144"/>
	<stop  offset="0.8735" style="stop-color:#CFB06E"/>
	<stop  offset="0.8926" style="stop-color:#CEAF6A"/>
	<stop  offset="0.9122" style="stop-color:#CBAA5E"/>
	<stop  offset="0.9318" style="stop-color:#C7A349"/>
	<stop  offset="0.9357" style="stop-color:#C6A144"/>
	<stop  offset="0.9564" style="stop-color:#C39F43"/>
	<stop  offset="0.9699" style="stop-color:#BB9640"/>
	<stop  offset="0.9813" style="stop-color:#AC8939"/>
	<stop  offset="0.9898" style="stop-color:#9B7932"/>
</radialGradient>
<path class="st0" d="M309.71,238.8c0,38.5-31.21,69.71-69.71,69.71s-69.71-31.21-69.71-69.71s31.21-69.71,69.71-69.71
	S309.71,200.3,309.71,238.8z M240,187.23c-28.48,0-51.57,23.09-51.57,51.57s23.09,51.57,51.57,51.57s51.57-23.09,51.57-51.57
	S268.48,187.23,240,187.23z"/>
<g>
	<path class="st1" d="M208.63,189c-6.47,3.28-12.18,7.84-16.61,13.64c-4.49,5.81-7.74,12.62-10.43,19.6
		c1.9-7.23,4.38-14.44,8.37-21.01c3.97-6.64,9.66-12.3,16.14-16.54c1.15-0.77,2.71-0.45,3.47,0.7
		C210.41,186.62,209.96,188.33,208.63,189L208.63,189z"/>
</g>
</svg>
